<svg width="33" height="38" viewBox="0 0 33 38" fill="none" xmlns="http://www.w3.org/2000/svg">
<g filter="url(#filter0_f_14_118)">
<ellipse cx="16.0769" cy="33.4615" rx="4.33333" ry="1.53846" fill="black" fill-opacity="0.2"/>
</g>
<g filter="url(#filter1_d_14_118)">
<path fill-rule="evenodd" clip-rule="evenodd" d="M16.0769 3C23.2566 3 29.0769 8.78586 29.0769 15.9231C29.0769 21.3954 25.6553 26.0733 20.8227 27.958L16.8174 33.4004C16.7339 33.5143 16.623 33.6073 16.4941 33.6715C16.3652 33.7357 16.2221 33.7692 16.0769 33.7692C15.9317 33.7692 15.7886 33.7357 15.6597 33.6715C15.5308 33.6073 15.42 33.5143 15.3365 33.4004L11.3311 27.958C6.49855 26.0733 3.07692 21.3954 3.07692 15.9231C3.07692 8.78586 8.89722 3 16.0769 3Z" fill="white"/>
</g>
<path d="M26.6007 15.9231C26.6007 10.1453 21.8891 5.46153 16.0769 5.46153C10.2648 5.46153 5.55311 10.1453 5.55311 15.9231C5.55311 21.7008 10.2648 26.3846 16.0769 26.3846C21.8891 26.3846 26.6007 21.7008 26.6007 15.9231Z" fill="#3478F5"/>
<g clip-path="url(#clip0_14_118)">
<path d="M19.2031 21.559H20.0595C20.4928 21.559 20.8487 21.2308 20.9003 20.8102L21.7515 12.359H19.1722V10.282H18.1559V12.359H15.592L15.7468 13.559C16.6289 13.8 17.4543 14.2359 17.9495 14.7179C18.6924 15.4461 19.2031 16.2 19.2031 17.4308V21.559ZM10.4023 21.0461V20.5385H18.1559V21.0461C18.1559 21.3282 17.9237 21.559 17.6349 21.559H10.9234C10.6345 21.559 10.4023 21.3282 10.4023 21.0461ZM18.1559 17.4564C18.1559 13.3538 10.4023 13.3538 10.4023 17.4564H18.1559ZM10.4126 18.4872H18.1507V19.5128H10.4126V18.4872Z" fill="white"/>
</g>
<defs>
<filter id="filter0_f_14_118" x="10.5128" y="30.6923" width="11.1282" height="5.53846" filterUnits="userSpaceOnUse" color-interpolation-filters="sRGB">
<feFlood flood-opacity="0" result="BackgroundImageFix"/>
<feBlend mode="normal" in="SourceGraphic" in2="BackgroundImageFix" result="shape"/>
<feGaussianBlur stdDeviation="0.615385" result="effect1_foregroundBlur_14_118"/>
</filter>
<filter id="filter1_d_14_118" x="-3.57628e-06" y="0.538462" width="32.1538" height="36.9231" filterUnits="userSpaceOnUse" color-interpolation-filters="sRGB">
<feFlood flood-opacity="0" result="BackgroundImageFix"/>
<feColorMatrix in="SourceAlpha" type="matrix" values="0 0 0 0 0 0 0 0 0 0 0 0 0 0 0 0 0 0 127 0" result="hardAlpha"/>
<feOffset dy="0.615385"/>
<feGaussianBlur stdDeviation="1.53846"/>
<feComposite in2="hardAlpha" operator="out"/>
<feColorMatrix type="matrix" values="0 0 0 0 0 0 0 0 0 0 0 0 0 0 0 0 0 0 0.1 0"/>
<feBlend mode="normal" in2="BackgroundImageFix" result="effect1_dropShadow_14_118"/>
<feBlend mode="normal" in="SourceGraphic" in2="effect1_dropShadow_14_118" result="shape"/>
</filter>
<clipPath id="clip0_14_118">
<rect width="12.381" height="12.3077" fill="white" transform="translate(9.88644 9.76923)"/>
</clipPath>
</defs>
</svg>
